<?xml version="1.0" encoding="UTF-8"?><svg xmlns="http://www.w3.org/2000/svg" xmlns:xlink="http://www.w3.org/1999/xlink" fill-opacity="1" color-rendering="auto" color-interpolation="auto" text-rendering="auto" stroke="black" stroke-linecap="square" width="448" stroke-miterlimit="10" shape-rendering="auto" stroke-opacity="1" fill="black" stroke-dasharray="none" font-weight="normal" stroke-width="1" height="445" font-family="'Dialog'" font-style="normal" stroke-linejoin="miter" font-size="12px" stroke-dashoffset="0" image-rendering="auto">
  <!--Generated by ySVG 2.5-->
  <defs id="genericDefs"/>
  <g>
    <defs id="defs1">
      <clipPath clipPathUnits="userSpaceOnUse" id="clipPath1">
        <path d="M0 0 L448 0 L448 445 L0 445 L0 0 Z"/>
      </clipPath>
      <clipPath clipPathUnits="userSpaceOnUse" id="clipPath2">
        <path d="M88 17 L536 17 L536 462 L88 462 L88 17 Z"/>
      </clipPath>
    </defs>
    <g fill="white" text-rendering="geometricPrecision" shape-rendering="geometricPrecision" transform="translate(-88,-17)" stroke="white">
      <rect x="88" width="448" height="445" y="17" clip-path="url(#clipPath2)" stroke="none"/>
    </g>
    <g text-rendering="geometricPrecision" stroke-miterlimit="1.45" shape-rendering="geometricPrecision" transform="matrix(1,0,0,1,-88,-17)" stroke-linecap="butt">
      <rect fill="none" x="103" width="66" height="30" y="228" clip-path="url(#clipPath2)"/>
      <text x="117.8799" xml:space="preserve" y="247.1543" clip-path="url(#clipPath2)" font-family="sans-serif" stroke="none">Sense</text>
      <rect fill="none" x="303" width="82" height="91" y="198" clip-path="url(#clipPath2)"/>
      <text x="327.5879" xml:space="preserve" y="247.6543" clip-path="url(#clipPath2)" font-family="sans-serif" stroke="none">Think</text>
      <rect fill="none" x="455" width="66" height="30" y="228.5" clip-path="url(#clipPath2)"/>
      <text x="478.2441" xml:space="preserve" y="247.6543" clip-path="url(#clipPath2)" font-family="sans-serif" stroke="none">Act</text>
      <ellipse rx="24" fill="none" ry="25.5" clip-path="url(#clipPath2)" cx="136" cy="136.5"/>
      <text x="121.6768" xml:space="preserve" y="133.6699" clip-path="url(#clipPath2)" font-family="sans-serif" stroke="none">Main</text>
      <text x="120.0039" xml:space="preserve" y="147.6387" clip-path="url(#clipPath2)" font-family="sans-serif" stroke="none">Drive</text>
    </g>
    <g text-rendering="geometricPrecision" stroke-miterlimit="1.45" shape-rendering="geometricPrecision" transform="matrix(1,0,0,1,-88,-17)" stroke-linecap="butt">
      <path fill="none" d="M288.0151 237.1154 L290.8536 241.8722 L290.8536 241.8722 L169.0023 241.5793 L168.9977 244.5793 L290.8464 244.8722 L290.8464 244.8722 L287.985 249.6154 L303 243.4014 L288.0151 237.1154 Z" clip-path="url(#clipPath2)"/>
    </g>
    <g text-rendering="geometricPrecision" stroke-miterlimit="1.45" shape-rendering="geometricPrecision" transform="matrix(1,0,0,1,-88,-17)" stroke-linecap="butt">
      <path fill="none" d="M440 237.25 L442.85 242 L385 242 L385 245 L442.85 245 L440 249.75 L455 243.5 L440 237.25 Z" clip-path="url(#clipPath2)"/>
    </g>
    <g text-rendering="geometricPrecision" stroke-miterlimit="1.45" shape-rendering="geometricPrecision" transform="matrix(1,0,0,1,-88,-17)" stroke-linecap="butt">
      <path fill="none" d="M370.9785 197.9674 L370.9785 138 L488 138 L488 220.5" clip-path="url(#clipPath2)"/>
      <path d="M488 228.5 L493 216.5 L488 219.5 L483 216.5 Z" clip-path="url(#clipPath2)" stroke="none"/>
      <path fill="none" d="M136 162 L136 220" clip-path="url(#clipPath2)"/>
      <path d="M136 228 L141 216 L136 219 L131 216 Z" clip-path="url(#clipPath2)" stroke="none"/>
      <path fill="none" d="M160 136.5 L324.1592 136.5 L324.1592 189.9635" clip-path="url(#clipPath2)"/>
      <path d="M324.1592 197.9635 L329.1592 185.9635 L324.1592 188.9635 L319.1592 185.9635 Z" clip-path="url(#clipPath2)" stroke="none"/>
      <text x="321.9521" font-size="15px" y="339.9233" clip-path="url(#clipPath2)" font-family="sans-serif" stroke="none" xml:space="preserve">Arc Types</text>
      <rect x="103" y="324" clip-path="url(#clipPath2)" fill="none" width="295" stroke-dasharray="6,2" rx="4" ry="4" height="122.4609"/>
      <rect fill="none" x="118" width="18" height="21" y="360.4609" clip-path="url(#clipPath2)"/>
      <rect fill="none" x="248" width="18" height="21" y="360.4609" clip-path="url(#clipPath2)"/>
      <rect fill="none" x="118" width="18" height="21" y="410.4609" clip-path="url(#clipPath2)"/>
      <rect fill="none" x="248" width="18" height="21" y="410.4609" clip-path="url(#clipPath2)"/>
      <rect fill="none" x="103" width="418" height="30" y="32" clip-path="url(#clipPath2)"/>
      <text x="246.5801" xml:space="preserve" y="51.1543" clip-path="url(#clipPath2)" font-family="sans-serif" stroke="none">the "Robot Paradigm"</text>
      <path fill="none" d="M136 370.9609 L240 370.9609" clip-path="url(#clipPath2)"/>
      <path d="M248 370.9609 L236 365.9609 L239 370.9609 L236 375.9609 Z" clip-path="url(#clipPath2)" stroke="none"/>
      <text x="274.4072" xml:space="preserve" y="375.1152" clip-path="url(#clipPath2)" font-family="sans-serif" stroke="none">Activation</text>
    </g>
    <g text-rendering="geometricPrecision" stroke-miterlimit="1.45" shape-rendering="geometricPrecision" transform="matrix(1,0,0,1,-88,-17)" stroke-linecap="butt">
      <path fill="none" d="M233 414.7109 L235.85 419.4609 L136 419.4609 L136 422.4609 L235.85 422.4609 L233 427.2109 L248 420.9609 L233 414.7109 Z" clip-path="url(#clipPath2)"/>
      <text x="275.5596" xml:space="preserve" y="425.1152" clip-path="url(#clipPath2)" font-family="sans-serif" stroke="none">Information Flow</text>
    </g>
  </g>
</svg>
