<?xml version="1.0" encoding="UTF-8" standalone="no"?>
<!-- Created with Inkscape (http://www.inkscape.org/) -->

<svg
   xmlns:dc="http://purl.org/dc/elements/1.1/"
   xmlns:cc="http://creativecommons.org/ns#"
   xmlns:rdf="http://www.w3.org/1999/02/22-rdf-syntax-ns#"
   xmlns:svg="http://www.w3.org/2000/svg"
   xmlns="http://www.w3.org/2000/svg"
   xmlns:sodipodi="http://sodipodi.sourceforge.net/DTD/sodipodi-0.dtd"
   xmlns:inkscape="http://www.inkscape.org/namespaces/inkscape"
   width="256mm"
   height="128mm"
   viewBox="0 0 907.0866 453.5433"
   id="svg2"
   version="1.1"
   inkscape:version="0.91 r13725"
   sodipodi:docname="logo.svg"
   inkscape:export-filename="/media/aly/Data/Git/Navibus-Mercatoriis/static/image/logo.png"
   inkscape:export-xdpi="90"
   inkscape:export-ydpi="90">
  <defs
     id="defs4">
    <inkscape:path-effect
       effect="skeletal"
       id="path-effect4236"
       is_visible="true"
       pattern="m 54.548237,467.64986 c 0,-2.76 2.24,-5 5,-5 2.76,0 5,2.24 5,5 0,2.76 -2.24,5 -5,5 -2.76,0 -5,-2.24 -5,-5 z"
       copytype="single_stretched"
       prop_scale="1"
       scale_y_rel="false"
       spacing="0"
       normal_offset="0"
       tang_offset="0"
       prop_units="false"
       vertical_pattern="false"
       fuse_tolerance="0" />
    <inkscape:path-effect
       effect="skeletal"
       id="path-effect4232"
       is_visible="true"
       pattern="m 54.548237,467.64986 c 0,-2.76 2.24,-5 5,-5 2.76,0 5,2.24 5,5 0,2.76 -2.24,5 -5,5 -2.76,0 -5,-2.24 -5,-5 z"
       copytype="single_stretched"
       prop_scale="1"
       scale_y_rel="false"
       spacing="0"
       normal_offset="0"
       tang_offset="0"
       prop_units="false"
       vertical_pattern="false"
       fuse_tolerance="0" />
  </defs>
  <sodipodi:namedview
     id="base"
     pagecolor="#ffffff"
     bordercolor="#666666"
     borderopacity="1.0"
     inkscape:pageopacity="0.0"
     inkscape:pageshadow="2"
     inkscape:zoom="0.49497475"
     inkscape:cx="119.4111"
     inkscape:cy="365.07962"
     inkscape:document-units="px"
     inkscape:current-layer="layer1"
     showgrid="false"
     inkscape:window-width="1301"
     inkscape:window-height="744"
     inkscape:window-x="65"
     inkscape:window-y="24"
     inkscape:window-maximized="1" />
  <metadata
     id="metadata7">
    <rdf:RDF>
      <cc:Work
         rdf:about="">
        <dc:format>image/svg+xml</dc:format>
        <dc:type
           rdf:resource="http://purl.org/dc/dcmitype/StillImage" />
        <dc:title></dc:title>
      </cc:Work>
    </rdf:RDF>
  </metadata>
  <g
     inkscape:label="Layer 1"
     inkscape:groupmode="layer"
     id="layer1"
     transform="translate(0,-598.8189)">
    <path
       style="fill:#000000;fill-rule:evenodd;stroke:none;stroke-width:1px;stroke-linecap:butt;stroke-linejoin:miter;stroke-opacity:1"
       d="m 114.54824,880.72635 c 0.79912,-0.39956 5.37334,10.0666 16.86621,27.83294 3.30036,5.10278 0.92362,1.3306 4.40118,6.69786 0.93297,1.43333 1.93919,3.03341 2.75398,4.8036 0.71788,1.58048 1.22677,3.2659 1.55247,5.01321 0.43182,2.31595 0.62103,4.60595 0.78418,6.97985 0.84974,12.12777 0.73529,14.74974 1.59633,28.56058 0.36001,5.61604 1.10593,11.61332 2.95305,17.27321 1.2626,3.84226 3.04777,7.65942 5.68646,10.73922 2.07863,2.45867 4.76333,4.51006 7.81045,5.92359 2.98976,1.40228 6.35116,2.2097 9.91175,2.6847 7.85186,1.04567 15.72216,0.35345 24.68414,-0.15028 8.45108,-0.51052 17.87121,-1.00639 27.24426,0.46058 3.15214,0.50294 6.37163,0.81966 9.74821,1.16124 5.33787,0.537 10.70859,1.00019 16.2554,1.45435 15.50652,1.2696 31.19429,2.3532 48.05437,3.4358 40.61921,2.6076 84.83893,4.9578 132.37609,6.7572 22.4482,0.8496 45.83144,1.5738 69.60826,1.9969 20.17846,0.3587 41.06153,0.5321 62.06,0.1576 8.56494,-0.1529 17.21213,-0.399 25.8698,-0.8278 7.04377,-0.3495 14.11819,-0.8083 21.14448,-1.5394 5.2214,-0.5483 10.3778,-1.1928 15.33279,-2.2887 0,0 6e-5,0 6e-5,0 1.7726,-0.3943 3.46337,-0.8204 5.02859,-1.3682 0,0 5e-5,0 5e-5,0 1.16643,-0.429 2.14787,-0.8007 2.82461,-1.2655 0.91796,-0.5771 1.8583,-1.3342 2.87623,-2.1823 1.34209,-1.1291 2.661,-2.3535 3.9908,-3.63467 3.58344,-3.45477 7.02088,-7.14654 10.4636,-10.95818 9.639,-10.67769 18.8094,-21.86911 28.02177,-33.42645 11.22823,-14.08942 22.25035,-28.53534 33.20074,-43.34933 11.32164,-15.31678 22.52374,-30.97951 33.49235,-46.98216 4.79287,-6.99318 9.55048,-14.05405 14.22629,-21.1845 5.04097,-7.68729 9.94826,-15.39658 14.69295,-23.16386 3.89098,-6.36997 7.65325,-12.74853 11.21097,-19.19965 2.94449,-5.34243 5.73778,-10.67491 8.20734,-16.09316 1.83403,-4.05279 3.50372,-7.98704 4.5516,-11.92979 0,0 1e-5,-6e-5 1e-5,-6e-5 0.36364,-1.39181 0.65447,-2.67009 0.74131,-3.83533 0,0 10e-6,-5e-5 10e-6,-5e-5 0.0225,-0.88284 0.0781,-1.48523 -0.0496,-1.71542 -0.0861,-0.008 0.0749,0.0765 0.4539,0.50289 0,0 3e-5,3e-5 3e-5,3e-5 0.50172,0.18411 0.50197,0.30671 0.23215,0.19675 -0.53785,-0.0532 -1.36388,0.20254 -2.44646,0.51244 0,0 -5e-5,2e-5 -5e-5,2e-5 -1.50826,0.48529 -3.06138,1.22241 -4.69117,2.06001 0,0 -6e-5,3e-5 -6e-5,3e-5 -22.59182,11.76367 -45.56618,24.17123 -67.35313,35.83517 -29.66687,15.88279 -57.65023,30.84158 -85.96224,45.70731 -26.91721,14.13396 -52.22603,27.29254 -78.04623,39.81095 -9.30738,4.51372 -18.46479,8.86498 -27.85414,12.83243 -3.20033,1.35377 -6.44978,2.6718 -9.81299,3.83501 -1.21695,0.42165 -2.48157,0.82898 -3.80365,1.18688 -0.93858,0.26138 -2.0075,0.50822 -3.21312,0.6649 -1.33478,0.1549 -2.53675,0.18603 -3.59111,0.19822 0,0 -6e-5,0 -6e-5,0 -1.77329,0.0315 -3.51725,0.0153 -5.22449,-0.0138 0,0 -6e-5,0 -6e-5,0 -5.22799,-0.0882 -10.42616,-0.30062 -15.5154,-0.52911 -16.33332,-0.73234 -32.69548,-1.74772 -48.13142,-2.73674 -48.50387,-3.10726 -96.8079,-6.76099 -135.4268,-9.76268 -53.87189,-4.18718 -99.44163,-8.01447 -131.07244,-10.84905 -18.36727,-1.64598 -32.73127,-3.01941 -42.65299,-4.07188 -10.55775,-1.12331 -16.08741,-1.87685 -16.06161,-2.21739 0.0258,-0.34054 5.60588,-0.25221 16.21203,0.22825 9.96752,0.44837 24.37258,1.23723 42.78027,2.32387 33.88555,2.00035 75.14663,4.63306 131.24635,8.16852 37.70425,2.37613 87.92552,5.57747 135.45058,8.18254 15.42263,0.84526 31.7682,1.71966 48.00006,2.3186 5.06886,0.18676 10.19159,0.35726 15.28315,0.40408 0,0 5e-5,0 5e-5,0 1.66628,0.015 3.31183,0.0189 4.9277,-0.0227 0,0 5e-5,0 5e-5,0 1.04482,-0.0331 1.95432,-0.0507 2.7091,-0.157 0.56039,-0.0641 1.22699,-0.23801 2.00957,-0.44646 1.04534,-0.28836 2.11617,-0.64482 3.22394,-1.03463 3.06519,-1.08069 6.12254,-2.35019 9.24253,-3.6915 9.1291,-3.9291 18.11534,-8.27515 27.35792,-12.82605 25.61408,-12.61554 50.7235,-25.84448 77.57879,-40.09978 28.29687,-15.02121 56.02254,-29.9742 85.73415,-45.98909 21.7624,-11.73039 44.68637,-24.1768 67.37902,-36.03984 0,0 6e-5,-3e-5 6e-5,-3e-5 1.87145,-0.98913 3.91512,-1.93712 6.16517,-2.69313 0,0 8e-5,-2e-5 8e-5,-2e-5 1.51224,-0.54712 3.38183,-0.97199 5.58088,-1.0192 1.61309,-0.10513 3.55325,0.40236 5.58093,1.69316 0,0 1.3e-4,1.1e-4 1.3e-4,1.1e-4 1.79972,1.45737 2.88268,3.15125 3.27467,4.83368 0.50893,2.02119 0.56864,3.80485 0.39403,5.25637 0,0 0,8e-5 0,8e-5 -0.1822,2.02078 -0.5731,3.88244 -1.04157,5.58353 0,0 -2e-5,7e-5 -2e-5,7e-5 -1.30412,4.79942 -3.15416,9.25133 -5.09126,13.47618 -2.61728,5.74738 -5.51971,11.30943 -8.53373,16.77933 -3.6466,6.62187 -7.47974,13.13123 -11.42296,19.5908 -4.80674,7.87445 -9.76986,15.6756 -14.86009,23.4388 -4.7216,7.20101 -9.51887,14.31797 -14.34566,21.35348 -11.05057,16.10865 -22.33504,31.85948 -33.7398,47.24775 -11.02861,14.88127 -22.15018,29.4059 -33.49569,43.58148 -9.28947,11.60917 -18.62097,22.93417 -28.49609,33.81687 -3.51993,3.88113 -7.1256,7.72427 -10.96496,11.40927 -1.42584,1.3694 -2.91099,2.7351 -4.48855,4.0581 -1.15498,0.9767 -2.44141,1.9818 -3.91228,2.9249 -1.7083,1.0529 -3.37087,1.7474 -4.87158,2.237 0,0 -6e-5,10e-5 -6e-5,10e-5 -2.08187,0.7084 -4.13611,1.2294 -6.12125,1.654 0,0 -6e-5,0 -6e-5,0 -5.53262,1.1896 -11.0459,1.8713 -16.41247,2.4031 -7.27487,0.7276 -14.52179,1.1713 -21.66662,1.4948 -8.79241,0.399 -17.53989,0.6107 -26.174,0.725 -21.16717,0.2803 -42.1521,-0 -62.39313,-0.4786 -23.86018,-0.5622 -47.28726,-1.4404 -69.77791,-2.4562 -47.60148,-2.1497 -91.89027,-4.9086 -132.53462,-7.9749 -16.85295,-1.2713 -32.60895,-2.5527 -48.13983,-4.0308 -5.55916,-0.529 -10.96855,-1.07 -16.36039,-1.6887 -3.36468,-0.3845 -6.70829,-0.766 -10.10251,-1.3541 -8.42834,-1.4998 -17.44743,-1.1274 -25.88075,-0.7895 -8.85584,0.3916 -17.15479,0.922 -25.76228,-0.3289 -3.95826,-0.5741 -7.8469,-1.6176 -11.46103,-3.36436 -3.72645,-1.81641 -6.96009,-4.40191 -9.4775,-7.49159 -3.11036,-3.86057 -5.10306,-8.28164 -6.37828,-12.58668 -1.87609,-6.2931 -2.5376,-12.67385 -2.75007,-18.50798 -1.10262,-29.18708 0.25756,-1.2397 -0.81438,-28.58233 -0.0955,-2.35656 -0.19633,-4.50216 -0.52162,-6.5916 -0.23595,-1.52053 -0.60981,-2.95547 -1.15959,-4.27251 -0.62747,-1.52624 -1.50976,-3.03387 -2.36879,-4.48213 -1.70267,-2.8566 -2.56968,-4.21209 -4.13674,-6.87353 C 118.18871,891.6313 114.47495,880.763 114.54824,880.72635 Z"
       id="path4230"
       inkscape:path-effect="#path-effect4232"
       inkscape:original-d="m 114.54824,880.72635 c 28.57143,57.14286 22.85714,22.85714 25.71428,80.00003 2.85715,57.14282 45.71429,34.2857 80.00001,40.00002 34.28571,5.7143 380,28.5714 411.42857,8.5714 31.42857,-20.00002 220,-277.14288 154.28571,-242.85716 -65.71428,34.28571 -251.42857,137.14285 -274.28571,140 -22.85715,2.85714 -397.14286,-25.71429 -397.14286,-25.71429 z"
       inkscape:connector-curvature="0" />
    <path
       style="fill:#000000;fill-rule:evenodd;stroke:none;stroke-width:1px;stroke-linecap:butt;stroke-linejoin:miter;stroke-opacity:1"
       d="m 174.54824,880.72635 c 0.7084,0 -3.8834,-18.56032 5.84618,-51.43262 3.78566,-12.77967 9.94832,-27.46718 19.7449,-42.53832 13.72257,-21.08813 33.7272,-41.80375 61.14126,-60.21197 17.95061,-12.06719 38.41266,-22.83402 61.37146,-31.7504 6.56398,-2.54955 13.35091,-4.95458 20.32937,-7.10285 3.25185,-0.45252 6.53009,-0.90438 9.83487,-1.35565 1.81777,1.9592 3.64904,3.92883 5.49388,5.90901 2.37474,3.40813 4.91684,6.69672 7.74986,9.64087 1.46651,1.52252 2.96881,2.93769 4.55965,4.12108 0,0 3e-5,3e-5 3e-5,3e-5 1.41774,1.02822 2.77934,1.8998 4.11285,2.318 1.07369,0.30456 2.07448,0.47874 2.71061,0.22354 0.74248,-0.0971 1.58318,-0.88607 2.43275,-1.8443 2.75866,-3.49399 5.37241,-7.07007 7.48233,-10.83146 1.70175,-3.22263 3.27784,-6.22976 3.288,-8.95301 0,0 0,-3e-5 0,-3e-5 -0.003,-0.92734 -0.067,-1.73257 -0.36643,-2.15836 0,0 -10e-6,-2e-5 -10e-6,-2e-5 -0.17359,-0.47271 -0.80613,-0.9525 -1.557,-1.39981 0,0 -3e-5,-1e-5 -3e-5,-1e-5 -1.19629,-0.6938 -2.87974,-0.98709 -4.79914,-1.24365 -2.8287,-0.32102 -5.83482,-0.18114 -8.97982,0.10357 0,10e-6 -4e-5,10e-6 -4e-5,10e-6 -7.46095,0.70942 -14.9787,1.68827 -22.41169,3.14734 0,0 -4e-5,10e-6 -4e-5,10e-6 -3.0926,0.6084 -6.1451,1.28815 -9.10173,2.14161 0,0 -5e-5,2e-5 -5e-5,2e-5 -2.26075,0.66714 -4.36679,1.33153 -6.15016,2.25252 -0.62166,0.33119 -1.11548,0.59792 -1.41465,0.86326 -0.19536,0.25374 -0.23802,0.1884 0.0133,-0.12933 0.25795,-0.50206 0.28487,-1.06259 0.12507,-1.81498 0,0 -2e-5,-4e-5 -2e-5,-4e-5 -0.31593,-0.57842 -0.32533,-0.76971 -0.2351,-0.54877 0,0 10e-6,1e-5 10e-6,1e-5 0.80161,0.87126 2.58918,1.36612 4.78509,2.22003 2e-5,10e-6 5e-5,2e-5 5e-5,2e-5 3.78031,1.28751 7.8208,2.16913 12.03912,3.00826 9.29274,1.82309 18.79921,3.06285 28.32266,3.17848 7.06229,0.0638 14.09682,-0.34148 20.60134,-2.1649 4.32414,-1.36507 8.41409,-2.83326 10.3826,-5.56737 0.7144,-0.89987 1.24188,-1.91991 1.36953,-2.87615 -10e-6,0 0,-2e-5 0,-2e-5 0.22359,-1.03473 0.004,-2.33609 -0.41003,-3.68821 -0.95881,-3.28485 -3.84927,-6.20301 -7.19724,-8.79521 -3.95288,-2.9305 -8.66608,-5.04412 -13.67423,-6.67488 0,10e-6 -5e-5,-10e-6 -5e-5,-10e-6 -5.00458,-1.59804 -10.19823,-2.62037 -15.40817,-2.86933 -4.30138,-0.12861 -8.39676,-0.0316 -11.64023,1.37264 -3.97168,1.59763 -7.88563,3.06233 -11.50697,4.73928 -3.28117,1.63824 -6.23578,2.88579 -7.75014,4.75732 -0.32288,0.57664 -0.60991,0.72547 -0.38126,0.37213 -0.20791,-0.52626 0.0418,-0.47671 0.24067,0.009 0,0 4e-5,2e-5 4e-5,2e-5 0.72171,0.95124 2.20232,1.74511 3.97901,2.7575 10e-6,0 5e-5,2e-5 5e-5,2e-5 2.86765,1.51658 6.07121,2.69261 9.45199,3.82842 1e-5,0 6e-5,2e-5 6e-5,2e-5 8.04625,2.67625 15.82892,5.65119 23.69061,8.56342 6.21199,2.28657 12.28023,4.56917 18.34065,5.91617 0,-1e-5 6e-5,10e-6 6e-5,10e-6 4.38449,0.83337 8.46843,1.56179 11.47424,0.35097 1.2085,-0.40009 2.3518,-1.09948 3.24404,-1.99455 0,0 3e-5,-2e-5 3e-5,-2e-5 1.12075,-1.05392 2.0071,-2.61733 2.80433,-4.38862 2.23811,-5.21798 4.57333,-9.84328 6.71008,-14.72526 1.09604,-2.61118 2.16912,-5.07281 2.86414,-7.40848 0.3955,-1.32913 0.66859,-2.61719 0.75583,-3.8718 0.066,-1.24665 0.0741,-2.29546 -0.2304,-2.95399 -0.16467,-0.56648 -0.66134,-1.16515 -1.25425,-1.62077 -0.9018,-0.76274 -2.41381,-1.21489 -4.17898,-1.67718 0,0 -5e-5,0 -5e-5,0 -2.6422,-0.61861 -5.56674,-0.75811 -8.64461,-0.77861 0,10e-6 -6e-5,0 -6e-5,0 -8.466,-0.0271 -16.65854,-1.45694 -24.44392,-3.31125 -7.58114,-1.78832 -12.44554,-3.39686 -19.5434,-5.05484 l 0,0 c -2.22731,-0.49897 -4.20432,-0.95903 -5.95658,-1.01283 0,0 -4e-5,0 -4e-5,0 -0.60665,-0.003 -1.01452,-0.0225 -1.19115,0.0432 -0.0822,0.0955 0.0596,-0.048 0.55142,-0.34828 0.46416,-0.49281 0.71289,-0.86263 0.75918,-1.23802 -0.024,-0.2662 0.0581,-0.14606 0.08,0.30225 0.26105,1.72404 1.40643,3.70135 2.64697,6.07537 2.90087,5.21865 5.78125,10.25039 9.06392,14.85383 2.17088,2.99124 4.30614,5.70766 6.78932,7.60996 l 0,0 c 0,0 4e-5,10e-6 4e-5,10e-6 1.74572,1.37633 3.77714,2.39021 5.88136,2.8914 0,-10e-6 4e-5,1e-5 4e-5,1e-5 2.40217,0.62376 5.19714,0.6902 8.21996,0.72321 l 0,0 c 4.59127,0.006 9.16457,-0.24374 13.68939,-0.75132 5.31323,-0.62012 10.3961,-1.46824 14.98281,-3.18458 l 0,0 c 1.97842,-0.75374 3.76548,-1.55696 5.16519,-2.60642 0,0 2e-5,-3e-5 2e-5,-3e-5 l 0,-10e-6 c 1.12264,-0.89453 2.0463,-1.74941 2.33814,-2.58854 -1e-5,0 10e-6,-2e-5 10e-6,-2e-5 0.3974,-0.69283 0.39498,-1.81944 0.1843,-2.94137 l 0,0 c 0,0 -2e-5,-4e-5 -2e-5,-4e-5 -0.33175,-1.83445 -1.58396,-3.7774 -3.05651,-5.86308 -10e-6,0 -3e-5,-4e-5 -3e-5,-4e-5 l 0,0 c -3.72925,-5.06428 -8.96343,-9.12396 -14.65339,-12.39741 0,0 -5e-5,-2e-5 -5e-5,-2e-5 -5.47795,-3.15154 -11.46368,-5.50358 -17.60279,-7.34214 -6.46752,-1.96816 -12.89311,-3.91499 -19.28349,-5.84149 l 0,0 c -1.07164,5.31282 -2.14516,10.593 -3.22183,15.84353 -0.001,0.003 -0.0113,0.0256 -0.0125,0.0283 -0.0117,0.0265 -0.0234,0.0534 -0.0352,0.0806 -0.0453,0.10415 -0.0918,0.21295 -0.14007,0.32621 0,0 0,0 0,0 -0.0746,0.16312 -0.14985,0.34288 -0.22798,0.53791 l 0,0 c -0.27339,0.68383 -0.50465,1.39996 -0.70012,2.13852 l 0,0 c -0.5704,2.2578 -0.78881,4.52693 -0.42729,6.57748 l 0,0 c 0.37902,2.57888 1.86932,5.09766 3.8967,6.90236 3.43976,3.23885 8.7384,4.74997 14.18892,5.87512 6.114,1.10633 12.20483,1.44991 17.90788,0.38506 l 0,0 c 1.95149,-0.36561 3.78524,-0.84113 5.41282,-1.55418 1.14332,-0.5552 2.04649,-0.96079 2.44754,-1.44425 l 0,0 c 0.0956,-0.15477 0.10816,-0.0943 -0.0652,0.18225 -0.21076,0.28746 -0.21288,0.8536 -0.0888,1.76797 0.3616,0.88297 0.66263,1.38556 1.01397,1.53523 0.31153,0.14675 0.3226,0.20772 0.1042,0.0992 -0.8633,-0.28581 -2.19831,-0.12763 -3.85103,0.002 l 0,0 c -2.66321,0.29798 -5.3911,0.98494 -8.16684,1.79444 l 0,0 c -5.8752,1.74998 -11.45695,3.72779 -16.49745,6.46295 l 0,0 c -3.34468,1.87474 -6.36372,3.78326 -8.26409,6.28669 -1.12146,1.57556 -1.9769,3.22781 -1.71654,4.47832 l 0,0 c -0.034,1.33478 1.07419,2.88853 2.40627,4.38304 0.0292,0.13274 0.49189,0.3081 1.19249,0.68799 l 0,0 c 0.97916,0.45283 2.11932,0.80877 3.35928,1.16638 3.60822,1.02525 7.44278,1.68914 11.31845,2.32546 l 0,0 c 11.36465,1.85039 23.56357,3.18966 34.57167,4.59618 l 0,0 c 14.46061,1.84494 27.95132,3.73819 41.34621,6.32787 l 0,0 c 13.50365,2.59897 26.05534,5.65007 37.95945,10.50844 l 0,0 c 6.65815,2.78755 11.88052,7.59116 15.90395,12.57571 l 0,0 c 5.29099,6.48264 9.24734,13.66728 12.45177,20.50503 l 0,0 c 4.0562,8.6287 7.20094,17.34952 9.7668,25.43905 l 0,0 c 3.06686,9.66267 5.48498,19.03955 7.43068,27.49476 l 0,0 c 4.62383,20.09133 7.26893,37.90738 8.70246,49.34758 l 0,0 c 0.86044,6.86531 1.37348,12.20205 1.63699,15.87939 l 0,0 c 0.13926,1.94346 0.20797,3.41767 0.217,4.42868 l 0,0 c 0.005,0.51604 -0.006,0.90671 -0.0323,1.17223 l 0,0 c -0.013,0.13415 -0.0298,0.23588 -0.0502,0.30512 l 0,0 0,0 0,0 c -0.01,0.0347 -0.0213,0.0614 -0.0334,0.0796 -0.006,0.009 -0.0123,0.0163 -0.0188,0.0213 -0.007,0.005 -0.0136,0.008 -0.0208,0.009 -0.007,7.5e-4 -0.0145,-7.2e-4 -0.0222,-0.004 -0.007,-0.004 -0.015,-0.009 -0.0228,-0.0169 -0.0156,-0.0153 -0.0322,-0.039 -0.0493,-0.0708 l 0,0 -10e-6,0 0,0 c -0.0344,-0.0632 -0.0725,-0.15893 -0.11404,-0.28666 l 0,0 c -0.0821,-0.25241 -0.17867,-0.63187 -0.29014,-1.13374 l 0,0 c -0.21669,-0.97562 -0.4949,-2.4402 -0.83745,-4.34351 l 0,0 c -0.63642,-3.53612 -1.55968,-8.97058 -2.77345,-15.67011 l 0,0 c -2.01478,-11.11949 -5.39686,-29.10098 -10.49607,-48.68601 l 0,0 c -2.16451,-8.31266 -4.79284,-17.52228 -8.02681,-26.9401 l 0,0 c -2.71151,-7.89156 -5.96209,-16.3406 -10.04243,-24.57503 l 0,0 c -3.24775,-6.53449 -7.09494,-13.25932 -12.04391,-19.0637 l 0,0 c -3.80021,-4.40312 -8.31198,-8.52684 -13.61287,-10.52305 l 0,0 c -11.3737,-4.45267 -23.51138,-7.17758 -36.862,-9.58085 -13.1999,-2.36419 -26.5399,-4.05631 -40.97522,-5.7257 l 0,0 c -10.94661,-1.2636 -23.21363,-2.47246 -34.8926,-4.24311 l 0,0 c -3.94874,-0.59323 -8.08031,-1.27807 -12.23066,-2.39552 l 0,0 c -1.42524,-0.37845 -2.94571,-0.85555 -4.50623,-1.53312 -1.04167,-0.3956 -2.31849,-1.11732 -3.64289,-2.33796 -2.38209,-2.21957 -4.30236,-5.41659 -4.82588,-9.36696 l 0,0 c -0.23131,-4.05835 1.16599,-7.68266 3.37275,-10.34311 3.07221,-3.82539 6.93086,-6.49988 10.75375,-8.53474 l 0,0 c 5.77611,-3.1648 11.88693,-5.42371 18.05613,-7.28705 3.00561,-0.9249 6.2035,-1.73621 9.58986,-2.16761 1.90034,-0.29859 4.23559,-0.41693 6.87441,0.12493 0.7981,0.13216 1.81641,0.53629 2.97674,1.29478 0.94848,0.58037 1.75395,1.67932 2.30434,3.2748 0.31,1.6159 0.17644,2.93799 -0.32173,3.89276 -0.55536,1.16513 -1.17294,2.00352 -1.76307,2.53297 -1.70972,1.6274 -3.50314,2.65575 -5.10826,3.29906 l 0,0 c -2.41857,1.05134 -4.88319,1.7386 -7.29924,2.18466 l 0,0 c -7.05445,1.30602 -14.22364,1.01743 -21.10997,-0.23993 -6.21709,-0.9962 -12.95628,-3.14627 -18.56582,-7.86335 -3.55063,-3.09946 -6.05635,-7.37363 -6.91578,-12.19114 -0.57769,-3.55866 -0.32364,-7.10041 0.54383,-10.38574 l 0,0 c 0.27438,-1.07273 0.61539,-2.1443 1.02973,-3.20512 l 0,0 c 0.11777,-0.30192 0.24778,-0.61567 0.39243,-0.93998 0,0 1e-5,0 1e-5,0 0.0104,-0.0171 0.0235,-0.0382 0.0396,-0.0631 -0.001,0.002 0.0146,-0.0223 0.0133,-0.0203 -0.007,0.011 0.0125,-0.0186 0.005,-0.008 2.70762,-6.10228 5.44289,-12.24857 8.20677,-18.44222 l 2e-5,0 c 8.26732,0.91148 16.60943,1.82394 25.03248,2.73885 6.81913,1.97466 13.62161,4.60711 20.06075,8.19331 0,0 5e-5,2e-5 5e-5,2e-5 6.57963,3.66357 12.81173,8.5527 17.65268,14.91534 0,0 3e-5,6e-5 3e-5,6e-5 l 10e-6,0 c 1.98371,2.52266 3.80588,5.66189 4.76704,9.47153 -10e-6,10e-6 2e-5,7e-5 2e-5,7e-5 l 0,0 c 0.69883,2.84856 0.51196,6.00803 -0.76436,9.04524 0,0 -5e-5,6e-5 -5e-5,6e-5 -1.35172,2.82373 -3.30968,4.97028 -5.44073,6.45147 -1e-5,-1e-5 -6e-5,4e-5 -6e-5,4e-5 -2.43855,1.75308 -5.00633,2.9857 -7.50223,3.88912 -5.71118,2.09769 -11.55505,3.14693 -17.24933,3.7797 -4.89425,0.56451 -9.83546,0.84958 -14.79276,0.85582 l 0,0 c -3.24783,0.033 -6.8091,-0.11559 -10.53004,-0.97322 0,0 -6e-5,-3e-5 -6e-5,-3e-5 -3.53127,-0.86224 -6.82144,-2.47677 -9.65415,-4.69778 10e-6,-2e-5 -6e-5,-5e-5 -6e-5,-5e-5 -3.6067,-2.88259 -6.39825,-6.27222 -8.7464,-9.62219 l 0,0 c -3.65,-5.12466 -6.73968,-10.46476 -9.68607,-15.77117 -1.40129,-2.38128 -2.90194,-5.30758 -3.71464,-8.93579 -0.28266,-1.07051 -0.35935,-2.52815 -0.0623,-4.31131 0.28599,-1.50698 1.10348,-2.95076 2.44166,-4.20258 l 0,0 c 1.42933,-1.11438 2.77427,-1.71192 3.90791,-1.87309 1.42135,-0.27174 2.6623,-0.3217 3.68885,-0.25122 0,0 7e-5,1e-5 7e-5,1e-5 2.88317,0.15436 5.46699,0.69443 7.7711,1.25279 8.93392,2.08245 11.01677,3.03509 19.56375,5.03445 7.42975,1.72032 14.86599,3.05516 22.16322,3.02803 0,0 6e-5,0 6e-5,0 3.44432,-0.0205 7.09989,0.1984 10.84175,1.01825 1e-5,1e-5 7e-5,1e-5 7e-5,1e-5 2.53285,0.50614 5.29799,1.53155 7.94157,3.40095 2.09113,1.53708 3.73886,3.68465 4.70557,6.26986 0.86226,2.59168 1.03605,5.08346 0.77406,7.28038 -0.22149,1.98712 -0.6151,3.87686 -1.11737,5.67646 -0.88302,3.16378 -2.1003,6.04293 -3.29838,8.66826 -2.27469,5.18766 -4.61283,9.8156 -6.68277,14.64974 -1.08563,2.62203 -2.68924,5.23721 -4.95237,7.54219 0,0 -7e-5,4e-5 -7e-5,4e-5 -2.01627,1.99199 -4.4534,3.48515 -7.12416,4.37815 -6.0703,1.81442 -11.93162,1.16717 -16.82933,-0.0954 0,0 -6e-5,-2e-5 -6e-5,-2e-5 -6.9358,-1.58765 -13.4215,-4.00268 -19.60566,-6.31594 -7.92566,-2.94597 -15.59622,-5.8954 -23.36297,-8.49015 0,0 -6e-5,-2e-5 -6e-5,-2e-5 -3.60349,-1.19229 -7.29696,-2.58502 -10.91619,-4.47512 0,0 -6e-5,-4e-5 -6e-5,-4e-5 -2.17616,-1.06351 -4.6037,-2.61144 -6.8132,-5.01021 10e-6,-2e-5 -5e-5,-6e-5 -5e-5,-6e-5 -1.56551,-1.53794 -2.62811,-4.02388 -2.64995,-7.22281 0.41303,-2.89261 1.56175,-5.02704 2.95579,-6.3243 3.49292,-3.59075 7.49466,-5.5875 10.91057,-7.0284 4.06878,-1.85872 8.13663,-3.37711 11.97518,-4.90357 5.38893,-2.04869 10.85283,-2.35645 15.77048,-2.02022 6.15069,0.32385 12.17201,1.51807 17.8954,3.38067 0,0 6e-5,3e-5 6e-5,3e-5 5.7356,1.83497 11.36557,4.44377 16.41495,8.1465 4.4705,3.16883 8.48546,7.679 10.57061,13.52623 0.8741,2.51361 1.20084,5.36539 0.73953,8.33189 0,0 -4e-5,7e-5 -4e-5,7e-5 -0.51568,2.80214 -1.73544,5.30661 -3.4407,7.33581 -4.36638,4.93409 -10.06486,7.4028 -15.2424,8.62906 -7.79651,2.07685 -15.6998,2.55183 -23.23795,2.38867 -10.24583,-0.19167 -20.2993,-1.54617 -29.9809,-3.51795 -4.35137,-0.87481 -8.77826,-1.88808 -13.1841,-3.39799 0,0 -6e-5,-3e-5 -6e-5,-3e-5 -2.29709,-0.68144 -5.11476,-1.79563 -7.84873,-4.05225 0,0 -6e-5,-5e-5 -6e-5,-5e-5 -0.85705,-0.61662 -1.73126,-1.80727 -2.41692,-3.59269 0,0 -5e-5,-1.4e-4 -5e-5,-1.4e-4 -0.45748,-1.72389 -0.31175,-3.3595 0.38735,-4.77536 0.80681,-1.46614 1.68758,-2.44563 2.48538,-2.98926 1.06358,-0.82681 2.09595,-1.43138 3.03289,-1.87949 2.63851,-1.28994 5.26873,-2.13946 7.73377,-2.81444 0,0 5e-5,-10e-6 5e-5,-10e-6 3.31173,-0.92675 6.61925,-1.64394 9.87129,-2.25567 0,10e-6 5e-5,-10e-6 5e-5,-10e-6 7.81552,-1.47332 15.62713,-2.43604 23.3026,-3.10265 0,0 6e-5,0 6e-5,0 3.45223,-0.31504 7.05074,-0.42193 10.74106,-0.008 2.48537,0.24003 5.20527,0.8771 7.89059,2.26082 0,0 6e-5,3e-5 6e-5,3e-5 2.0252,1.03851 3.83989,2.74135 5.10586,5.05104 0,0 3e-5,7e-5 3e-5,7e-5 1.08014,2.24081 1.44258,4.51334 1.27416,6.56913 0,0 0,7e-5 0,7e-5 -0.41988,5.0138 -2.39448,9.22999 -4.47986,12.65413 -2.48345,4.30043 -5.37436,8.20919 -8.32124,11.84712 -1.5556,2.04818 -3.87119,3.76654 -6.82651,4.63899 -2.71736,0.6241 -5.30408,0.3678 -7.48563,-0.45314 -2.47731,-0.89938 -4.57953,-2.19066 -6.35161,-3.57914 0,0 -3e-5,-4e-5 -3e-5,-4e-5 -2.04502,-1.57124 -3.85985,-3.2972 -5.50412,-5.05694 -3.20398,-3.42564 -5.99257,-7.09792 -8.50081,-10.80003 -0.37201,-1.46441 -0.74826,-2.92487 -1.1288,-4.38145 -1.80437,0.97971 -3.60661,1.95081 -5.40695,2.91334 -6.76916,2.00196 -13.38589,4.2641 -19.81329,6.67428 -22.56556,8.46351 -42.69791,18.69981 -60.41122,30.21953 -27.02307,17.59451 -46.8277,37.26239 -60.62926,57.46419 -9.85551,14.40992 -16.25947,28.51967 -20.38258,40.87164 -10.6132,31.77051 -7.40545,50.32233 -9.37438,50.32233 z"
       id="path4234"
       inkscape:path-effect="#path-effect4236"
       inkscape:original-d="m 174.54824,880.72635 c 0,-148.57143 177.14286,-191.42857 177.14286,-191.42857 0,0 20,34.28571 31.42857,20 11.42857,-14.28572 22.85714,-34.28572 -8.57143,-31.42857 -31.42857,2.85714 -65.71429,11.42857 -22.85714,20 42.85714,8.57143 71.42857,0 65.71428,-17.14286 -5.71428,-17.14286 -40,-25.71429 -54.28571,-20 -14.28572,5.71429 -40,14.28571 -5.71429,25.71429 34.28572,11.42857 57.14286,25.71428 65.71429,5.71428 8.57143,-20 22.85714,-40 -8.57143,-40 -31.42857,0 -65.71429,-22.85714 -51.42857,2.85714 14.28571,25.71429 20,28.57143 34.28571,28.57143 14.28572,0 54.28572,-2.85714 37.14286,-25.71428 -17.14286,-22.85715 -57.14286,-25.71429 -57.14286,-25.71429 l -5.71428,17.14286 c 0,0 -11.42857,22.85714 20,28.57143 31.42857,5.71428 42.85714,-14.28572 14.28571,-5.71429 -28.57143,8.57143 -34.28571,20 -25.71428,28.57143 8.57142,8.57143 88.57142,8.57143 131.42857,25.71429 42.85714,17.14285 57.14285,154.28571 57.14285,154.28571"
       inkscape:connector-curvature="0" />
    <flowRoot
       xml:space="preserve"
       id="flowRoot4238"
       style="font-style:normal;font-weight:normal;font-size:90px;line-height:125%;font-family:sans-serif;letter-spacing:0px;word-spacing:0px;fill:#000000;fill-opacity:1;stroke:none;stroke-width:1px;stroke-linecap:butt;stroke-linejoin:miter;stroke-opacity:1"
       transform="translate(54.548237,462.64986)"><flowRegion
         id="flowRegion4240"><rect
           id="rect4242"
           width="137.14285"
           height="114.28571"
           x="260"
           y="295.21936"
           style="font-size:90px" /></flowRegion><flowPara
         id="flowPara4244"
         style="font-size:90px">$$</flowPara></flowRoot>    <path
       style="fill:#ffcc00;fill-opacity:1;stroke:#c83737;stroke-width:0.02020305;stroke-miterlimit:4;stroke-dasharray:none;stroke-opacity:1"
       d="M 459.92743,899.93821 C 345.39611,893.32843 183.41191,883.3341 180.01354,882.66769 c -3.90112,-0.76501 -4.05675,-1.70726 -2.67364,-16.18707 6.47591,-67.79675 54.6339,-123.70633 136.87871,-158.91094 18.74841,-8.02519 19.06833,-8.08385 30.66719,-5.6224 8.1162,1.72237 13.40569,4.24568 17.1983,8.20432 7.68489,8.02129 15.97612,9.47342 23.27578,4.07654 5.72448,-4.23227 6.06625,-4.24513 31.59101,-1.18859 69.91997,8.37279 92.19844,13.86141 103.94553,25.60849 15.84721,15.84722 30.40124,55.19388 40.96815,110.75694 1.79621,9.44493 3.71433,19.25673 4.26244,21.804 0.90224,4.19292 -1.44784,5.81548 -24.8223,17.13803 -29.38168,14.23242 -31.17791,14.48828 -81.37728,11.5912 z M 346.79034,854.45575 c 0,-5.77658 0.75652,-7.07107 4.13244,-7.07107 6.66966,0 14.05031,-8.89552 14.05031,-16.93413 0,-7.62079 -7.27715,-15.39075 -14.41459,-15.39075 -3.1191,0 -3.76816,-1.56599 -3.76816,-9.09138 0,-9.63661 0.75831,-10.23929 8.95985,-7.12107 4.68162,1.77995 5.18229,1.49602 5.18229,-2.93891 0,-4.01098 -1.29378,-5.15193 -7.07107,-6.23575 -5.73753,-1.07637 -7.07107,-2.23667 -7.07107,-6.15246 0,-3.47905 -1.1277,-4.82592 -4.04061,-4.82592 -2.85954,0 -4.04061,1.34687 -4.04061,4.60783 0,3.22697 -1.752,5.26914 -5.84627,6.81456 -8.3143,3.1383 -13.03557,11.10004 -11.29138,19.04129 1.0836,4.93358 3.18528,7.13278 9.24939,9.67855 7.41216,3.11171 7.8483,3.7843 7.86771,12.13316 0.02,8.57078 -0.14794,8.80483 -5.53529,7.71763 -3.05571,-0.61667 -7.14683,-1.73671 -9.09137,-2.489 -2.78687,-1.07815 -3.53553,-0.30239 -3.53553,3.6635 0,5.18772 4.09302,7.43734 13.63705,7.49526 3.84295,0.0233 4.54569,1.12074 4.54569,7.09866 0,5.72419 0.76964,7.07106 4.04061,7.07106 3.27097,0 4.04061,-1.34687 4.04061,-7.07106 z m 56.56854,0 c 0,-5.55378 0.80857,-7.07107 3.76816,-7.07107 2.07249,0 6.1636,-1.88426 9.09137,-4.18725 4.07006,-3.2015 5.32322,-5.98144 5.32322,-11.8087 0,-8.25528 -3.43268,-12.64126 -12.6306,-16.13831 -4.81997,-1.83254 -5.55215,-3.2121 -5.55215,-10.46116 0,-8.08671 0.17415,-8.30653 5.51818,-6.96527 9.2088,2.31126 9.63411,2.22486 9.63411,-1.95709 0,-2.98956 -1.97072,-4.52744 -7.57614,-5.91215 -6.04405,-1.49307 -7.57615,-2.82088 -7.57615,-6.56599 0,-2.82598 -1.20618,-4.69445 -3.03045,-4.69445 -1.84899,0 -3.03046,1.88373 -3.03046,4.83174 0,3.58799 -1.43016,5.18867 -5.55584,6.21832 -8.75782,2.1857 -12.62691,6.89849 -12.62691,15.38039 0,5.82727 1.25316,8.6072 5.32322,11.80871 2.92777,2.30298 7.01889,4.18724 9.09138,4.18724 3.13282,0 3.76815,1.57151 3.76815,9.32068 0,9.05234 -0.16001,9.29322 -5.55584,8.36695 -3.05571,-0.52455 -7.14683,-1.63414 -9.09137,-2.46576 -2.83776,-1.21362 -3.53554,-0.49603 -3.53554,3.63599 0,4.44505 1.17249,5.37833 8.5863,6.83468 7.77623,1.52754 8.64602,2.30118 9.21938,8.20012 0.90017,9.26143 6.43798,8.78178 6.43798,-0.55762 z"
       id="path4246"
       inkscape:connector-curvature="0" />
    <path
       style="fill:#ffcc00;fill-opacity:1;stroke:#c83737;stroke-width:0.02020305;stroke-miterlimit:4;stroke-dasharray:none;stroke-opacity:1"
       d="m 392.75228,810.7933 c -4.35507,-2.45769 -4.58637,-8.50877 -0.45625,-11.93646 4.17905,-3.46831 5.38903,-1.69592 4.6309,6.78341 -0.54971,6.14827 -1.13371,6.86914 -4.17465,5.15305 z"
       id="path4248"
       inkscape:connector-curvature="0" />
    <path
       style="fill:#ffcc00;fill-opacity:1;stroke:#c83737;stroke-width:0.02020305;stroke-miterlimit:4;stroke-dasharray:none;stroke-opacity:1"
       d="m 331.8542,807.82349 c -1.95987,-5.10734 -1.48055,-6.62759 2.81431,-8.92613 3.68643,-1.97292 4.04061,-1.53643 4.04061,4.97968 0,7.49614 -4.49888,10.08619 -6.85492,3.94645 z"
       id="path4250"
       inkscape:connector-curvature="0" />
    <path
       style="fill:#ffcc00;fill-opacity:1;stroke:#c83737;stroke-width:0.02020305;stroke-miterlimit:4;stroke-dasharray:none;stroke-opacity:1"
       d=""
       id="path4252"
       inkscape:connector-curvature="0" />
    <path
       style="fill:#ffcc00;fill-opacity:1;stroke:#c83737;stroke-width:0.02020305;stroke-miterlimit:4;stroke-dasharray:none;stroke-opacity:1"
       d="m 346.79034,831.15116 c 0,-7.52626 0.3103,-7.98624 4.04061,-5.98984 4.52039,2.41924 5.29546,8.03855 1.61625,11.71777 -4.18382,4.18382 -5.65686,2.69227 -5.65686,-5.72793 z"
       id="path4256"
       inkscape:connector-curvature="0" />
    <path
       style="fill:#ffcc00;fill-opacity:1;stroke:#c83737;stroke-width:0.02020305;stroke-miterlimit:4;stroke-dasharray:none;stroke-opacity:1"
       d="m 403.35888,831.15116 c 0,-7.40245 0.35547,-7.96207 3.86454,-6.08407 4.8961,2.62031 6.18988,6.19531 3.8726,10.70083 -3.45061,6.70911 -7.73714,4.15133 -7.73714,-4.61676 z"
       id="path4258"
       inkscape:connector-curvature="0" />
    <path
       style="fill:#ffcc00;fill-opacity:1;stroke:#c83737;stroke-width:0.02020305;stroke-miterlimit:4;stroke-dasharray:none;stroke-opacity:1"
       d=""
       id="path4260"
       inkscape:connector-curvature="0" />
    <path
       style="fill:#2c5aa0;fill-opacity:1;stroke:#c83737;stroke-width:0.02020305;stroke-miterlimit:4;stroke-dasharray:none;stroke-opacity:1"
       d="m 411.4401,1008.9385 c -64.05229,-2.9834 -115.59598,-6.0841 -155.56349,-9.35812 -21.66777,-1.7749 -51.6693,-3.3343 -66.67007,-3.4652 -23.87588,-0.2084 -27.95603,-0.7415 -32.74715,-4.2787 -8.34488,-6.1608 -11.71077,-17.1869 -13.66514,-44.76481 -1.63879,-23.12472 -2.26391,-25.80234 -8.30601,-35.57783 -18.12338,-29.32175 -18.40513,-29.92628 -13.43211,-28.81985 6.66004,1.48176 108.57454,10.31325 197.44994,17.11018 115.61998,8.84227 184.70579,12.88335 194.68046,11.38756 11.6553,-1.74782 87.79751,-39.46935 193.95082,-96.08497 46.36746,-24.72953 84.87708,-44.39014 85.57697,-43.69026 2.48403,2.48404 -19.67025,43.13549 -41.41217,75.98818 -35.86846,54.19834 -94.98656,131.1332 -115.90331,150.8338 -3.72677,3.51012 -10.41249,7.51622 -14.85716,8.90252 -9.85139,3.0728 -155.05597,4.3349 -209.10158,1.8175 z"
       id="path4280"
       inkscape:connector-curvature="0" />
  </g>
</svg>
